%TF.GenerationSoftware,KiCad,Pcbnew,9.0.4*%
%TF.CreationDate,2025-10-01T03:24:27-07:00*%
%TF.ProjectId,DSC-ESP-01,4453432d-4553-4502-9d30-312e6b696361,rev?*%
%TF.SameCoordinates,Original*%
%TF.FileFunction,Copper,L2,Bot*%
%TF.FilePolarity,Positive*%
%FSLAX46Y46*%
G04 Gerber Fmt 4.6, Leading zero omitted, Abs format (unit mm)*
G04 Created by KiCad (PCBNEW 9.0.4) date 2025-10-01 03:24:27*
%MOMM*%
%LPD*%
G01*
G04 APERTURE LIST*
G04 Aperture macros list*
%AMRoundRect*
0 Rectangle with rounded corners*
0 $1 Rounding radius*
0 $2 $3 $4 $5 $6 $7 $8 $9 X,Y pos of 4 corners*
0 Add a 4 corners polygon primitive as box body*
4,1,4,$2,$3,$4,$5,$6,$7,$8,$9,$2,$3,0*
0 Add four circle primitives for the rounded corners*
1,1,$1+$1,$2,$3*
1,1,$1+$1,$4,$5*
1,1,$1+$1,$6,$7*
1,1,$1+$1,$8,$9*
0 Add four rect primitives between the rounded corners*
20,1,$1+$1,$2,$3,$4,$5,0*
20,1,$1+$1,$4,$5,$6,$7,0*
20,1,$1+$1,$6,$7,$8,$9,0*
20,1,$1+$1,$8,$9,$2,$3,0*%
G04 Aperture macros list end*
%ADD10C,0.079375*%
%TA.AperFunction,NonConductor*%
%ADD11C,0.079375*%
%TD*%
%TA.AperFunction,ComponentPad*%
%ADD12R,1.050000X1.500000*%
%TD*%
%TA.AperFunction,ComponentPad*%
%ADD13O,1.050000X1.500000*%
%TD*%
%TA.AperFunction,ComponentPad*%
%ADD14R,1.700000X1.700000*%
%TD*%
%TA.AperFunction,ComponentPad*%
%ADD15C,1.700000*%
%TD*%
%TA.AperFunction,ComponentPad*%
%ADD16RoundRect,0.250000X-0.725000X0.600000X-0.725000X-0.600000X0.725000X-0.600000X0.725000X0.600000X0*%
%TD*%
%TA.AperFunction,ComponentPad*%
%ADD17O,1.950000X1.700000*%
%TD*%
%TA.AperFunction,ComponentPad*%
%ADD18C,1.500000*%
%TD*%
%TA.AperFunction,ComponentPad*%
%ADD19C,1.400000*%
%TD*%
%TA.AperFunction,ViaPad*%
%ADD20C,1.500000*%
%TD*%
%TA.AperFunction,Conductor*%
%ADD21C,0.400000*%
%TD*%
%TA.AperFunction,Conductor*%
%ADD22C,1.000000*%
%TD*%
%TA.AperFunction,Conductor*%
%ADD23C,0.200000*%
%TD*%
G04 APERTURE END LIST*
D10*
D11*
X207518160Y-73966267D02*
X207215779Y-73754600D01*
X207518160Y-73603410D02*
X206883160Y-73603410D01*
X206883160Y-73603410D02*
X206883160Y-73845315D01*
X206883160Y-73845315D02*
X206913398Y-73905791D01*
X206913398Y-73905791D02*
X206943636Y-73936029D01*
X206943636Y-73936029D02*
X207004112Y-73966267D01*
X207004112Y-73966267D02*
X207094826Y-73966267D01*
X207094826Y-73966267D02*
X207155302Y-73936029D01*
X207155302Y-73936029D02*
X207185541Y-73905791D01*
X207185541Y-73905791D02*
X207215779Y-73845315D01*
X207215779Y-73845315D02*
X207215779Y-73603410D01*
D10*
D11*
X207215779Y-79036386D02*
X207518160Y-79036386D01*
X206883160Y-78824720D02*
X207215779Y-79036386D01*
X207215779Y-79036386D02*
X206883160Y-79248053D01*
D10*
D11*
X207518160Y-76236743D02*
X206883160Y-76236743D01*
X207518160Y-76599600D02*
X207155302Y-76327457D01*
X206883160Y-76599600D02*
X207246017Y-76236743D01*
D10*
D11*
X206913398Y-81836029D02*
X206883160Y-81775553D01*
X206883160Y-81775553D02*
X206883160Y-81684839D01*
X206883160Y-81684839D02*
X206913398Y-81594124D01*
X206913398Y-81594124D02*
X206973874Y-81533648D01*
X206973874Y-81533648D02*
X207034350Y-81503410D01*
X207034350Y-81503410D02*
X207155302Y-81473172D01*
X207155302Y-81473172D02*
X207246017Y-81473172D01*
X207246017Y-81473172D02*
X207366969Y-81503410D01*
X207366969Y-81503410D02*
X207427445Y-81533648D01*
X207427445Y-81533648D02*
X207487922Y-81594124D01*
X207487922Y-81594124D02*
X207518160Y-81684839D01*
X207518160Y-81684839D02*
X207518160Y-81745315D01*
X207518160Y-81745315D02*
X207487922Y-81836029D01*
X207487922Y-81836029D02*
X207457683Y-81866267D01*
X207457683Y-81866267D02*
X207246017Y-81866267D01*
X207246017Y-81866267D02*
X207246017Y-81745315D01*
D12*
%TO.P,Q1,1,S*%
%TO.N,Net-(Q1-S)*%
X186666534Y-83600000D03*
D13*
%TO.P,Q1,2,G*%
%TO.N,/Yellow*%
X187936534Y-83600000D03*
%TO.P,Q1,3,D*%
%TO.N,Net-(Q1-D)*%
X189206534Y-83600000D03*
%TD*%
D12*
%TO.P,Q4,1,S*%
%TO.N,Net-(Q2-G)*%
X194843694Y-83140178D03*
D13*
%TO.P,Q4,2,G*%
%TO.N,Net-(J2-Pin_1)*%
X193573694Y-83140178D03*
%TO.P,Q4,3,D*%
%TO.N,Net-(Q1-D)*%
X192303694Y-83140178D03*
%TD*%
D14*
%TO.P,J2,1,Pin_1*%
%TO.N,Net-(J2-Pin_1)*%
X198124173Y-82900000D03*
D15*
%TO.P,J2,2,Pin_2*%
%TO.N,Net-(J2-Pin_2)*%
X200664173Y-82900000D03*
%TD*%
D12*
%TO.P,Q3,1,S*%
%TO.N,Net-(Q3-S)*%
X186666534Y-74360000D03*
D13*
%TO.P,Q3,2,G*%
%TO.N,/Green*%
X187936534Y-74360000D03*
%TO.P,Q3,3,D*%
%TO.N,Net-(Q1-D)*%
X189206534Y-74360000D03*
%TD*%
D16*
%TO.P,J1,1,Pin_1*%
%TO.N,/Red*%
X208726750Y-74777918D03*
D17*
%TO.P,J1,2,Pin_2*%
%TO.N,/Black*%
X208726750Y-77277918D03*
%TO.P,J1,3,Pin_3*%
%TO.N,/Yellow*%
X208726750Y-79777918D03*
%TO.P,J1,4,Pin_4*%
%TO.N,/Green*%
X208726750Y-82277918D03*
%TD*%
D14*
%TO.P,U2,1,VO+*%
%TO.N,/VCC*%
X203839937Y-82395088D03*
D15*
%TO.P,U2,2,GND*%
%TO.N,/Black*%
X203839937Y-79855088D03*
%TO.P,U2,3,IN+*%
%TO.N,/Red*%
X203839937Y-77315088D03*
%TO.P,U2,4,EN*%
%TO.N,unconnected-(U2-EN-Pad4)*%
X203839937Y-74775088D03*
%TD*%
D18*
%TO.P,U1,1,GND*%
%TO.N,/Black*%
X183755969Y-74899811D03*
%TO.P,U1,2,IO2*%
%TO.N,Net-(J2-Pin_2)*%
X183755969Y-77439811D03*
%TO.P,U1,3,IO0*%
%TO.N,Net-(Q1-D)*%
X183755969Y-79979811D03*
%TO.P,U1,4,RXD*%
%TO.N,Net-(Q1-S)*%
X183755969Y-82519811D03*
%TO.P,U1,5,TXD*%
%TO.N,Net-(Q3-S)*%
X181215969Y-74899811D03*
%TO.P,U1,6,EN*%
%TO.N,/VCC*%
X181215969Y-77439811D03*
%TO.P,U1,7,~{RST}*%
%TO.N,unconnected-(U1-~{RST}-Pad7)*%
X181215969Y-79979811D03*
%TO.P,U1,8,VCC*%
%TO.N,/VCC*%
X181215969Y-82519811D03*
%TD*%
D19*
%TO.P,R1,1*%
%TO.N,Net-(J2-Pin_1)*%
X193500000Y-80080000D03*
%TO.P,R1,2*%
%TO.N,/Black*%
X193500000Y-75000000D03*
%TD*%
D12*
%TO.P,Q2,1,S*%
%TO.N,/Black*%
X189206534Y-78229699D03*
D13*
%TO.P,Q2,2,G*%
%TO.N,Net-(Q2-G)*%
X187936534Y-78229699D03*
%TO.P,Q2,3,D*%
%TO.N,/Green*%
X186666534Y-78229699D03*
%TD*%
D20*
%TO.N,Net-(Q2-G)*%
X196000000Y-75000000D03*
X196000000Y-81000000D03*
%TO.N,/VCC*%
X185788077Y-80768811D03*
X185191532Y-83669811D03*
%TD*%
D21*
%TO.N,/Yellow*%
X199375173Y-83380182D02*
X200145991Y-84151000D01*
X188752161Y-82519811D02*
X188830131Y-82519811D01*
X188830131Y-82519811D02*
X192447942Y-78902000D01*
X200145991Y-84151000D02*
X204586025Y-84151000D01*
X197502000Y-78902000D02*
X199375173Y-80775173D01*
X187936534Y-83600000D02*
X187936534Y-83335438D01*
X204586025Y-84151000D02*
X206434567Y-82302458D01*
X206434567Y-82302458D02*
X206434567Y-81259732D01*
X207916381Y-79777918D02*
X208726750Y-79777918D01*
X192447942Y-78902000D02*
X197502000Y-78902000D01*
X206434567Y-81259732D02*
X207916381Y-79777918D01*
X199375173Y-80775173D02*
X199375173Y-83380182D01*
X187936534Y-83335438D02*
X188752161Y-82519811D01*
%TO.N,Net-(Q1-D)*%
X184206216Y-76200000D02*
X185139534Y-77133318D01*
X189206534Y-74059632D02*
X189206534Y-72909632D01*
X191604106Y-83839766D02*
X192303694Y-83140178D01*
X180509674Y-76200000D02*
X184206216Y-76200000D01*
X189206534Y-72909632D02*
X189196902Y-72900000D01*
X181100000Y-72900000D02*
X180064969Y-73935031D01*
X185139534Y-78596246D02*
X183755969Y-79979811D01*
X180064969Y-73935031D02*
X180064969Y-75755295D01*
X189206534Y-83839766D02*
X191604106Y-83839766D01*
X185139534Y-77133318D02*
X185139534Y-78596246D01*
X180064969Y-75755295D02*
X180509674Y-76200000D01*
X189196902Y-72900000D02*
X181100000Y-72900000D01*
%TO.N,Net-(Q1-S)*%
X186019811Y-82519811D02*
X183755969Y-82519811D01*
X186666534Y-83839766D02*
X186666534Y-83166534D01*
X186666534Y-83166534D02*
X186019811Y-82519811D01*
%TO.N,/Black*%
X185740534Y-76884376D02*
X185740534Y-79006499D01*
D22*
X206622082Y-77277918D02*
X204041245Y-79858755D01*
D21*
X193500000Y-75000000D02*
X193500000Y-76500000D01*
X189206534Y-78229699D02*
X189276835Y-78300000D01*
X193600000Y-74900000D02*
X193500000Y-75000000D01*
X186334035Y-79600000D02*
X188700000Y-79600000D01*
X189370301Y-78229699D02*
X189460000Y-78140000D01*
X188700000Y-79600000D02*
X189206534Y-79093466D01*
X189206534Y-79093466D02*
X189206534Y-78229699D01*
D22*
X204041245Y-79858755D02*
X203870937Y-79858755D01*
D21*
X199393791Y-77099000D02*
X193500000Y-77099000D01*
D22*
X208726750Y-77277918D02*
X206622082Y-77277918D01*
D21*
X189236233Y-78200000D02*
X190463291Y-78200000D01*
X193500000Y-77099000D02*
X193500000Y-76500000D01*
X191564291Y-77099000D02*
X193500000Y-77099000D01*
X183755969Y-74899811D02*
X185740534Y-76884376D01*
X185740534Y-79006499D02*
X186334035Y-79600000D01*
X190463291Y-78200000D02*
X191564291Y-77099000D01*
X189206534Y-78229699D02*
X189236233Y-78200000D01*
X189206534Y-78229699D02*
X189370301Y-78229699D01*
X203839937Y-79855088D02*
X203795025Y-79900000D01*
X202194791Y-79900000D02*
X199393791Y-77099000D01*
X203795025Y-79900000D02*
X202194791Y-79900000D01*
%TO.N,/Green*%
X189532075Y-75600000D02*
X187936534Y-75600000D01*
X187936534Y-75600000D02*
X187500000Y-75600000D01*
X192032075Y-73100000D02*
X189532075Y-75600000D01*
X210700000Y-73993910D02*
X209806090Y-73100000D01*
X210700000Y-80304668D02*
X210700000Y-73993910D01*
X187936534Y-74059632D02*
X187936534Y-75600000D01*
X209806090Y-73100000D02*
X192032075Y-73100000D01*
X186666534Y-76433466D02*
X186666534Y-78229699D01*
X187500000Y-75600000D02*
X186666534Y-76433466D01*
X208726750Y-82277918D02*
X210700000Y-80304668D01*
%TO.N,Net-(Q2-G)*%
X189882017Y-76100000D02*
X189781017Y-76201000D01*
X189900000Y-76100000D02*
X189882017Y-76100000D01*
X192300000Y-73700000D02*
X189900000Y-76100000D01*
X194700000Y-73700000D02*
X192300000Y-73700000D01*
X196000000Y-75000000D02*
X194700000Y-73700000D01*
X188699000Y-76201000D02*
X187936534Y-76963466D01*
X187936534Y-76963466D02*
X187936534Y-78229699D01*
X194843694Y-83140178D02*
X194843694Y-82156306D01*
X194843694Y-82156306D02*
X196000000Y-81000000D01*
X189781017Y-76201000D02*
X188699000Y-76201000D01*
D23*
%TO.N,Net-(Q3-S)*%
X186455713Y-73848811D02*
X186666534Y-74059632D01*
D21*
X181215969Y-74899811D02*
X182366969Y-73748811D01*
X186355713Y-73748811D02*
X186666534Y-74059632D01*
X182366969Y-73748811D02*
X186355713Y-73748811D01*
%TO.N,Net-(J2-Pin_1)*%
X196476760Y-79849000D02*
X198124173Y-81496413D01*
X193731000Y-79849000D02*
X196476760Y-79849000D01*
X198124173Y-81496413D02*
X198124173Y-83400000D01*
X193600000Y-79980000D02*
X193600000Y-83113872D01*
X193500000Y-80080000D02*
X193731000Y-79849000D01*
X193600000Y-83113872D02*
X193573694Y-83140178D01*
%TO.N,Net-(J2-Pin_2)*%
X182500000Y-78695780D02*
X182500000Y-80500000D01*
X185311317Y-81919811D02*
X186264837Y-81919811D01*
X185310317Y-81918811D02*
X185311317Y-81919811D01*
X188581189Y-81918811D02*
X192199000Y-78301000D01*
X183348020Y-81300000D02*
X184500000Y-81300000D01*
X183755969Y-77439811D02*
X182500000Y-78695780D01*
X183324010Y-81324010D02*
X183348020Y-81300000D01*
X184500000Y-81300000D02*
X185118811Y-81918811D01*
X186265837Y-81918811D02*
X188581189Y-81918811D01*
X186264837Y-81919811D02*
X186265837Y-81918811D01*
X185118811Y-81918811D02*
X185310317Y-81918811D01*
X182500000Y-80500000D02*
X183324010Y-81324010D01*
X192199000Y-78301000D02*
X198895907Y-78301000D01*
X200664173Y-80069266D02*
X200664173Y-83400000D01*
X198895907Y-78301000D02*
X200664173Y-80069266D01*
D22*
%TO.N,/Red*%
X203870937Y-77325421D02*
X204174579Y-77325421D01*
X204174579Y-77325421D02*
X206722082Y-74777918D01*
X206722082Y-74777918D02*
X208726750Y-74777918D01*
D21*
%TO.N,/VCC*%
X199144849Y-77700000D02*
X191813233Y-77700000D01*
X203839937Y-82395088D02*
X199144849Y-77700000D01*
X185000000Y-83900000D02*
X182596158Y-83900000D01*
X203838261Y-82957410D02*
X203835025Y-82954174D01*
X179800000Y-78855780D02*
X179800000Y-81103842D01*
X181215969Y-77439811D02*
X179800000Y-78855780D01*
X203835025Y-82954174D02*
X203835025Y-82400000D01*
X188744422Y-80768811D02*
X185788077Y-80768811D01*
X203835025Y-82400000D02*
X203839937Y-82395088D01*
X182596158Y-83900000D02*
X181215969Y-82519811D01*
X191813233Y-77700000D02*
X188744422Y-80768811D01*
X179800000Y-81103842D02*
X181215969Y-82519811D01*
%TD*%
M02*
