%TF.GenerationSoftware,KiCad,Pcbnew,9.0.4*%
%TF.CreationDate,2025-10-01T03:24:28-07:00*%
%TF.ProjectId,DSC-ESP-01,4453432d-4553-4502-9d30-312e6b696361,rev?*%
%TF.SameCoordinates,Original*%
%TF.FileFunction,Legend,Top*%
%TF.FilePolarity,Positive*%
%FSLAX46Y46*%
G04 Gerber Fmt 4.6, Leading zero omitted, Abs format (unit mm)*
G04 Created by KiCad (PCBNEW 9.0.4) date 2025-10-01 03:24:28*
%MOMM*%
%LPD*%
G01*
G04 APERTURE LIST*
%ADD10C,0.150000*%
%ADD11C,0.100000*%
%ADD12C,0.120000*%
G04 APERTURE END LIST*
D10*
X187841295Y-85310291D02*
X187746057Y-85262672D01*
X187746057Y-85262672D02*
X187650819Y-85167434D01*
X187650819Y-85167434D02*
X187507962Y-85024576D01*
X187507962Y-85024576D02*
X187412724Y-84976957D01*
X187412724Y-84976957D02*
X187317486Y-84976957D01*
X187365105Y-85215053D02*
X187269867Y-85167434D01*
X187269867Y-85167434D02*
X187174629Y-85072195D01*
X187174629Y-85072195D02*
X187127010Y-84881719D01*
X187127010Y-84881719D02*
X187127010Y-84548386D01*
X187127010Y-84548386D02*
X187174629Y-84357910D01*
X187174629Y-84357910D02*
X187269867Y-84262672D01*
X187269867Y-84262672D02*
X187365105Y-84215053D01*
X187365105Y-84215053D02*
X187555581Y-84215053D01*
X187555581Y-84215053D02*
X187650819Y-84262672D01*
X187650819Y-84262672D02*
X187746057Y-84357910D01*
X187746057Y-84357910D02*
X187793676Y-84548386D01*
X187793676Y-84548386D02*
X187793676Y-84881719D01*
X187793676Y-84881719D02*
X187746057Y-85072195D01*
X187746057Y-85072195D02*
X187650819Y-85167434D01*
X187650819Y-85167434D02*
X187555581Y-85215053D01*
X187555581Y-85215053D02*
X187365105Y-85215053D01*
X188746057Y-85215053D02*
X188174629Y-85215053D01*
X188460343Y-85215053D02*
X188460343Y-84215053D01*
X188460343Y-84215053D02*
X188365105Y-84357910D01*
X188365105Y-84357910D02*
X188269867Y-84453148D01*
X188269867Y-84453148D02*
X188174629Y-84500767D01*
X193478455Y-85250057D02*
X193383217Y-85202438D01*
X193383217Y-85202438D02*
X193287979Y-85107200D01*
X193287979Y-85107200D02*
X193145122Y-84964342D01*
X193145122Y-84964342D02*
X193049884Y-84916723D01*
X193049884Y-84916723D02*
X192954646Y-84916723D01*
X193002265Y-85154819D02*
X192907027Y-85107200D01*
X192907027Y-85107200D02*
X192811789Y-85011961D01*
X192811789Y-85011961D02*
X192764170Y-84821485D01*
X192764170Y-84821485D02*
X192764170Y-84488152D01*
X192764170Y-84488152D02*
X192811789Y-84297676D01*
X192811789Y-84297676D02*
X192907027Y-84202438D01*
X192907027Y-84202438D02*
X193002265Y-84154819D01*
X193002265Y-84154819D02*
X193192741Y-84154819D01*
X193192741Y-84154819D02*
X193287979Y-84202438D01*
X193287979Y-84202438D02*
X193383217Y-84297676D01*
X193383217Y-84297676D02*
X193430836Y-84488152D01*
X193430836Y-84488152D02*
X193430836Y-84821485D01*
X193430836Y-84821485D02*
X193383217Y-85011961D01*
X193383217Y-85011961D02*
X193287979Y-85107200D01*
X193287979Y-85107200D02*
X193192741Y-85154819D01*
X193192741Y-85154819D02*
X193002265Y-85154819D01*
X194287979Y-84488152D02*
X194287979Y-85154819D01*
X194049884Y-84107200D02*
X193811789Y-84821485D01*
X193811789Y-84821485D02*
X194430836Y-84821485D01*
X187804761Y-73250425D02*
X187709523Y-73202806D01*
X187709523Y-73202806D02*
X187614285Y-73107568D01*
X187614285Y-73107568D02*
X187471428Y-72964710D01*
X187471428Y-72964710D02*
X187376190Y-72917091D01*
X187376190Y-72917091D02*
X187280952Y-72917091D01*
X187328571Y-73155187D02*
X187233333Y-73107568D01*
X187233333Y-73107568D02*
X187138095Y-73012329D01*
X187138095Y-73012329D02*
X187090476Y-72821853D01*
X187090476Y-72821853D02*
X187090476Y-72488520D01*
X187090476Y-72488520D02*
X187138095Y-72298044D01*
X187138095Y-72298044D02*
X187233333Y-72202806D01*
X187233333Y-72202806D02*
X187328571Y-72155187D01*
X187328571Y-72155187D02*
X187519047Y-72155187D01*
X187519047Y-72155187D02*
X187614285Y-72202806D01*
X187614285Y-72202806D02*
X187709523Y-72298044D01*
X187709523Y-72298044D02*
X187757142Y-72488520D01*
X187757142Y-72488520D02*
X187757142Y-72821853D01*
X187757142Y-72821853D02*
X187709523Y-73012329D01*
X187709523Y-73012329D02*
X187614285Y-73107568D01*
X187614285Y-73107568D02*
X187519047Y-73155187D01*
X187519047Y-73155187D02*
X187328571Y-73155187D01*
X188090476Y-72155187D02*
X188709523Y-72155187D01*
X188709523Y-72155187D02*
X188376190Y-72536139D01*
X188376190Y-72536139D02*
X188519047Y-72536139D01*
X188519047Y-72536139D02*
X188614285Y-72583758D01*
X188614285Y-72583758D02*
X188661904Y-72631377D01*
X188661904Y-72631377D02*
X188709523Y-72726615D01*
X188709523Y-72726615D02*
X188709523Y-72964710D01*
X188709523Y-72964710D02*
X188661904Y-73059948D01*
X188661904Y-73059948D02*
X188614285Y-73107568D01*
X188614285Y-73107568D02*
X188519047Y-73155187D01*
X188519047Y-73155187D02*
X188233333Y-73155187D01*
X188233333Y-73155187D02*
X188138095Y-73107568D01*
X188138095Y-73107568D02*
X188090476Y-73059948D01*
D11*
X201885052Y-76807668D02*
X201885052Y-77807668D01*
X201408862Y-76807668D02*
X201408862Y-77807668D01*
X201408862Y-77807668D02*
X200837434Y-76807668D01*
X200837434Y-76807668D02*
X200837434Y-77807668D01*
X200361243Y-77188621D02*
X199599339Y-77188621D01*
X199980291Y-76807668D02*
X199980291Y-77569573D01*
X201361243Y-80300049D02*
X201456481Y-80347668D01*
X201456481Y-80347668D02*
X201599338Y-80347668D01*
X201599338Y-80347668D02*
X201742195Y-80300049D01*
X201742195Y-80300049D02*
X201837433Y-80204811D01*
X201837433Y-80204811D02*
X201885052Y-80109573D01*
X201885052Y-80109573D02*
X201932671Y-79919097D01*
X201932671Y-79919097D02*
X201932671Y-79776240D01*
X201932671Y-79776240D02*
X201885052Y-79585764D01*
X201885052Y-79585764D02*
X201837433Y-79490526D01*
X201837433Y-79490526D02*
X201742195Y-79395288D01*
X201742195Y-79395288D02*
X201599338Y-79347668D01*
X201599338Y-79347668D02*
X201504100Y-79347668D01*
X201504100Y-79347668D02*
X201361243Y-79395288D01*
X201361243Y-79395288D02*
X201313624Y-79442907D01*
X201313624Y-79442907D02*
X201313624Y-79776240D01*
X201313624Y-79776240D02*
X201504100Y-79776240D01*
X200885052Y-79347668D02*
X200885052Y-80347668D01*
X200885052Y-80347668D02*
X200313624Y-79347668D01*
X200313624Y-79347668D02*
X200313624Y-80347668D01*
X199837433Y-79347668D02*
X199837433Y-80347668D01*
X199837433Y-80347668D02*
X199599338Y-80347668D01*
X199599338Y-80347668D02*
X199456481Y-80300049D01*
X199456481Y-80300049D02*
X199361243Y-80204811D01*
X199361243Y-80204811D02*
X199313624Y-80109573D01*
X199313624Y-80109573D02*
X199266005Y-79919097D01*
X199266005Y-79919097D02*
X199266005Y-79776240D01*
X199266005Y-79776240D02*
X199313624Y-79585764D01*
X199313624Y-79585764D02*
X199361243Y-79490526D01*
X199361243Y-79490526D02*
X199456481Y-79395288D01*
X199456481Y-79395288D02*
X199599338Y-79347668D01*
X199599338Y-79347668D02*
X199837433Y-79347668D01*
X201885052Y-74791478D02*
X201551719Y-74791478D01*
X201408862Y-74267668D02*
X201885052Y-74267668D01*
X201885052Y-74267668D02*
X201885052Y-75267668D01*
X201885052Y-75267668D02*
X201408862Y-75267668D01*
X200980290Y-74267668D02*
X200980290Y-75267668D01*
X200980290Y-75267668D02*
X200408862Y-74267668D01*
X200408862Y-74267668D02*
X200408862Y-75267668D01*
X202027909Y-82887668D02*
X201694576Y-81887668D01*
X201694576Y-81887668D02*
X201361243Y-82887668D01*
X200837433Y-82887668D02*
X200646957Y-82887668D01*
X200646957Y-82887668D02*
X200551719Y-82840049D01*
X200551719Y-82840049D02*
X200456481Y-82744811D01*
X200456481Y-82744811D02*
X200408862Y-82554335D01*
X200408862Y-82554335D02*
X200408862Y-82221002D01*
X200408862Y-82221002D02*
X200456481Y-82030526D01*
X200456481Y-82030526D02*
X200551719Y-81935288D01*
X200551719Y-81935288D02*
X200646957Y-81887668D01*
X200646957Y-81887668D02*
X200837433Y-81887668D01*
X200837433Y-81887668D02*
X200932671Y-81935288D01*
X200932671Y-81935288D02*
X201027909Y-82030526D01*
X201027909Y-82030526D02*
X201075528Y-82221002D01*
X201075528Y-82221002D02*
X201075528Y-82554335D01*
X201075528Y-82554335D02*
X201027909Y-82744811D01*
X201027909Y-82744811D02*
X200932671Y-82840049D01*
X200932671Y-82840049D02*
X200837433Y-82887668D01*
X199980290Y-82268621D02*
X199218386Y-82268621D01*
X199599338Y-81887668D02*
X199599338Y-82649573D01*
D10*
X192034819Y-77706666D02*
X191558628Y-78039999D01*
X192034819Y-78278094D02*
X191034819Y-78278094D01*
X191034819Y-78278094D02*
X191034819Y-77897142D01*
X191034819Y-77897142D02*
X191082438Y-77801904D01*
X191082438Y-77801904D02*
X191130057Y-77754285D01*
X191130057Y-77754285D02*
X191225295Y-77706666D01*
X191225295Y-77706666D02*
X191368152Y-77706666D01*
X191368152Y-77706666D02*
X191463390Y-77754285D01*
X191463390Y-77754285D02*
X191511009Y-77801904D01*
X191511009Y-77801904D02*
X191558628Y-77897142D01*
X191558628Y-77897142D02*
X191558628Y-78278094D01*
X192034819Y-76754285D02*
X192034819Y-77325713D01*
X192034819Y-77039999D02*
X191034819Y-77039999D01*
X191034819Y-77039999D02*
X191177676Y-77135237D01*
X191177676Y-77135237D02*
X191272914Y-77230475D01*
X191272914Y-77230475D02*
X191320533Y-77325713D01*
X187841295Y-80250057D02*
X187746057Y-80202438D01*
X187746057Y-80202438D02*
X187650819Y-80107200D01*
X187650819Y-80107200D02*
X187507962Y-79964342D01*
X187507962Y-79964342D02*
X187412724Y-79916723D01*
X187412724Y-79916723D02*
X187317486Y-79916723D01*
X187365105Y-80154819D02*
X187269867Y-80107200D01*
X187269867Y-80107200D02*
X187174629Y-80011961D01*
X187174629Y-80011961D02*
X187127010Y-79821485D01*
X187127010Y-79821485D02*
X187127010Y-79488152D01*
X187127010Y-79488152D02*
X187174629Y-79297676D01*
X187174629Y-79297676D02*
X187269867Y-79202438D01*
X187269867Y-79202438D02*
X187365105Y-79154819D01*
X187365105Y-79154819D02*
X187555581Y-79154819D01*
X187555581Y-79154819D02*
X187650819Y-79202438D01*
X187650819Y-79202438D02*
X187746057Y-79297676D01*
X187746057Y-79297676D02*
X187793676Y-79488152D01*
X187793676Y-79488152D02*
X187793676Y-79821485D01*
X187793676Y-79821485D02*
X187746057Y-80011961D01*
X187746057Y-80011961D02*
X187650819Y-80107200D01*
X187650819Y-80107200D02*
X187555581Y-80154819D01*
X187555581Y-80154819D02*
X187365105Y-80154819D01*
X188174629Y-79250057D02*
X188222248Y-79202438D01*
X188222248Y-79202438D02*
X188317486Y-79154819D01*
X188317486Y-79154819D02*
X188555581Y-79154819D01*
X188555581Y-79154819D02*
X188650819Y-79202438D01*
X188650819Y-79202438D02*
X188698438Y-79250057D01*
X188698438Y-79250057D02*
X188746057Y-79345295D01*
X188746057Y-79345295D02*
X188746057Y-79440533D01*
X188746057Y-79440533D02*
X188698438Y-79583390D01*
X188698438Y-79583390D02*
X188127010Y-80154819D01*
X188127010Y-80154819D02*
X188746057Y-80154819D01*
D12*
%TO.C,Q1*%
X186136534Y-85450000D02*
X189736534Y-85450000D01*
X186098056Y-85438478D02*
G75*
G02*
X187936534Y-80999999I1838478J1838478D01*
G01*
X187936534Y-81000000D02*
G75*
G02*
X189775012Y-85438478I0J-2600000D01*
G01*
%TO.C,Q4*%
X195373694Y-81290178D02*
X191773694Y-81290178D01*
X193573694Y-85740178D02*
G75*
G02*
X191735216Y-81301700I0J2600000D01*
G01*
X195412172Y-81301700D02*
G75*
G02*
X193573694Y-85740179I-1838478J-1838478D01*
G01*
%TO.C,J2*%
X196744173Y-78750000D02*
X196744173Y-81510000D01*
X196744173Y-81510000D02*
X202044173Y-81510000D01*
X196854173Y-84170000D02*
X196854173Y-82900000D01*
X197694173Y-81740000D02*
X197694173Y-81510000D01*
X198124173Y-84170000D02*
X196854173Y-84170000D01*
X198554173Y-81740000D02*
X198554173Y-81510000D01*
X199394173Y-81510000D02*
X199394173Y-78750000D01*
X200234173Y-72750000D02*
X201094173Y-72750000D01*
X200234173Y-78750000D02*
X200234173Y-72750000D01*
X200234173Y-81822642D02*
X200234173Y-81510000D01*
X201094173Y-72750000D02*
X201094173Y-78750000D01*
X201094173Y-81822642D02*
X201094173Y-81510000D01*
X202044173Y-78750000D02*
X196744173Y-78750000D01*
X202044173Y-81510000D02*
X202044173Y-78750000D01*
X197694173Y-78750000D02*
X198554173Y-78750000D01*
X198554173Y-72750000D01*
X197694173Y-72750000D01*
X197694173Y-78750000D01*
G36*
X197694173Y-78750000D02*
G01*
X198554173Y-78750000D01*
X198554173Y-72750000D01*
X197694173Y-72750000D01*
X197694173Y-78750000D01*
G37*
%TO.C,Q3*%
X186136534Y-76210000D02*
X189736534Y-76210000D01*
X186098056Y-76198478D02*
G75*
G02*
X187936534Y-71759999I1838478J1838478D01*
G01*
X187936534Y-71760000D02*
G75*
G02*
X189775012Y-76198478I0J-2600000D01*
G01*
%TO.C,J1*%
X205216750Y-72217918D02*
X205216750Y-84837918D01*
X205216750Y-84837918D02*
X211186750Y-84837918D01*
X205976750Y-72977918D02*
X205976750Y-78527918D01*
X205976750Y-84077918D02*
X205976750Y-78527918D01*
X208926750Y-72227918D02*
X208926750Y-72977918D01*
X208926750Y-72977918D02*
X205976750Y-72977918D01*
X208926750Y-84077918D02*
X205976750Y-84077918D01*
X208926750Y-84827918D02*
X208926750Y-84077918D01*
X210426750Y-72227918D02*
X210426750Y-74027918D01*
X210426750Y-74027918D02*
X211176750Y-74027918D01*
X210426750Y-75527918D02*
X210426750Y-81527918D01*
X210426750Y-81527918D02*
X211176750Y-81527918D01*
X210426750Y-83027918D02*
X210426750Y-84827918D01*
X210426750Y-84827918D02*
X211176750Y-84827918D01*
X211176750Y-72227918D02*
X210426750Y-72227918D01*
X211176750Y-74027918D02*
X211176750Y-72227918D01*
X211176750Y-75527918D02*
X210426750Y-75527918D01*
X211176750Y-81527918D02*
X211176750Y-75527918D01*
X211176750Y-83027918D02*
X210426750Y-83027918D01*
X211176750Y-84827918D02*
X211176750Y-83027918D01*
X211186750Y-72217918D02*
X205216750Y-72217918D01*
X211186750Y-84837918D02*
X211186750Y-72217918D01*
X211476750Y-71927918D02*
X210226750Y-71927918D01*
X211476750Y-73177918D02*
X211476750Y-71927918D01*
%TO.C,U2*%
X202459937Y-81125088D02*
X202459937Y-73395088D01*
X205219937Y-73395088D02*
X202459937Y-73395088D01*
X205219937Y-81125088D02*
X202459937Y-81125088D01*
X205219937Y-81125088D02*
X205219937Y-73395088D01*
X205219937Y-82395088D02*
X205219937Y-83775088D01*
X205219937Y-83775088D02*
X203839937Y-83775088D01*
D11*
X185170937Y-83792088D02*
X205236937Y-83792088D01*
X205236937Y-73378088D01*
X185170937Y-73378088D01*
X185170937Y-83792088D01*
%TO.C,U1*%
D12*
X185055969Y-73599811D02*
X179915969Y-73599811D01*
X179915969Y-83919811D01*
X185055969Y-83919811D01*
X185055969Y-73599811D01*
X204525969Y-71289811D02*
X179605969Y-71289811D01*
X179605969Y-85909811D01*
X204525969Y-85909811D01*
X204525969Y-71289811D01*
X186205724Y-75418890D02*
X185205724Y-74918890D01*
X186205724Y-74418890D01*
X186205724Y-75418890D01*
G36*
X186205724Y-75418890D02*
G01*
X185205724Y-74918890D01*
X186205724Y-74418890D01*
X186205724Y-75418890D01*
G37*
%TO.C,R1*%
X192580000Y-79460000D02*
X192580000Y-75620000D01*
X194420000Y-79460000D02*
X194420000Y-75620000D01*
%TO.C,Q2*%
X189736534Y-76379699D02*
X186136534Y-76379699D01*
X187936534Y-80829699D02*
G75*
G02*
X186098056Y-76391221I0J2600000D01*
G01*
X189775012Y-76391221D02*
G75*
G02*
X187936534Y-80829700I-1838478J-1838478D01*
G01*
%TD*%
M02*
