%TF.GenerationSoftware,KiCad,Pcbnew,9.0.4*%
%TF.CreationDate,2025-10-01T03:24:27-07:00*%
%TF.ProjectId,DSC-ESP-01,4453432d-4553-4502-9d30-312e6b696361,rev?*%
%TF.SameCoordinates,Original*%
%TF.FileFunction,Copper,L1,Top*%
%TF.FilePolarity,Positive*%
%FSLAX46Y46*%
G04 Gerber Fmt 4.6, Leading zero omitted, Abs format (unit mm)*
G04 Created by KiCad (PCBNEW 9.0.4) date 2025-10-01 03:24:27*
%MOMM*%
%LPD*%
G01*
G04 APERTURE LIST*
G04 Aperture macros list*
%AMRoundRect*
0 Rectangle with rounded corners*
0 $1 Rounding radius*
0 $2 $3 $4 $5 $6 $7 $8 $9 X,Y pos of 4 corners*
0 Add a 4 corners polygon primitive as box body*
4,1,4,$2,$3,$4,$5,$6,$7,$8,$9,$2,$3,0*
0 Add four circle primitives for the rounded corners*
1,1,$1+$1,$2,$3*
1,1,$1+$1,$4,$5*
1,1,$1+$1,$6,$7*
1,1,$1+$1,$8,$9*
0 Add four rect primitives between the rounded corners*
20,1,$1+$1,$2,$3,$4,$5,0*
20,1,$1+$1,$4,$5,$6,$7,0*
20,1,$1+$1,$6,$7,$8,$9,0*
20,1,$1+$1,$8,$9,$2,$3,0*%
G04 Aperture macros list end*
%TA.AperFunction,ComponentPad*%
%ADD10R,1.050000X1.500000*%
%TD*%
%TA.AperFunction,ComponentPad*%
%ADD11O,1.050000X1.500000*%
%TD*%
%TA.AperFunction,ComponentPad*%
%ADD12R,1.700000X1.700000*%
%TD*%
%TA.AperFunction,ComponentPad*%
%ADD13C,1.700000*%
%TD*%
%TA.AperFunction,ComponentPad*%
%ADD14RoundRect,0.250000X-0.725000X0.600000X-0.725000X-0.600000X0.725000X-0.600000X0.725000X0.600000X0*%
%TD*%
%TA.AperFunction,ComponentPad*%
%ADD15O,1.950000X1.700000*%
%TD*%
%TA.AperFunction,ComponentPad*%
%ADD16C,1.500000*%
%TD*%
%TA.AperFunction,ComponentPad*%
%ADD17C,1.400000*%
%TD*%
%TA.AperFunction,ViaPad*%
%ADD18C,1.500000*%
%TD*%
%TA.AperFunction,Conductor*%
%ADD19C,0.400000*%
%TD*%
G04 APERTURE END LIST*
D10*
%TO.P,Q1,1,S*%
%TO.N,Net-(Q1-S)*%
X186666534Y-83600000D03*
D11*
%TO.P,Q1,2,G*%
%TO.N,/Yellow*%
X187936534Y-83600000D03*
%TO.P,Q1,3,D*%
%TO.N,Net-(Q1-D)*%
X189206534Y-83600000D03*
%TD*%
D10*
%TO.P,Q4,1,S*%
%TO.N,Net-(Q2-G)*%
X194843694Y-83140178D03*
D11*
%TO.P,Q4,2,G*%
%TO.N,Net-(J2-Pin_1)*%
X193573694Y-83140178D03*
%TO.P,Q4,3,D*%
%TO.N,Net-(Q1-D)*%
X192303694Y-83140178D03*
%TD*%
D12*
%TO.P,J2,1,Pin_1*%
%TO.N,Net-(J2-Pin_1)*%
X198124173Y-82900000D03*
D13*
%TO.P,J2,2,Pin_2*%
%TO.N,Net-(J2-Pin_2)*%
X200664173Y-82900000D03*
%TD*%
D10*
%TO.P,Q3,1,S*%
%TO.N,Net-(Q3-S)*%
X186666534Y-74360000D03*
D11*
%TO.P,Q3,2,G*%
%TO.N,/Green*%
X187936534Y-74360000D03*
%TO.P,Q3,3,D*%
%TO.N,Net-(Q1-D)*%
X189206534Y-74360000D03*
%TD*%
D14*
%TO.P,J1,1,Pin_1*%
%TO.N,/Red*%
X208726750Y-74777918D03*
D15*
%TO.P,J1,2,Pin_2*%
%TO.N,/Black*%
X208726750Y-77277918D03*
%TO.P,J1,3,Pin_3*%
%TO.N,/Yellow*%
X208726750Y-79777918D03*
%TO.P,J1,4,Pin_4*%
%TO.N,/Green*%
X208726750Y-82277918D03*
%TD*%
D12*
%TO.P,U2,1,VO+*%
%TO.N,/VCC*%
X203839937Y-82395088D03*
D13*
%TO.P,U2,2,GND*%
%TO.N,/Black*%
X203839937Y-79855088D03*
%TO.P,U2,3,IN+*%
%TO.N,/Red*%
X203839937Y-77315088D03*
%TO.P,U2,4,EN*%
%TO.N,unconnected-(U2-EN-Pad4)*%
X203839937Y-74775088D03*
%TD*%
D16*
%TO.P,U1,1,GND*%
%TO.N,/Black*%
X183755969Y-74899811D03*
%TO.P,U1,2,IO2*%
%TO.N,Net-(J2-Pin_2)*%
X183755969Y-77439811D03*
%TO.P,U1,3,IO0*%
%TO.N,Net-(Q1-D)*%
X183755969Y-79979811D03*
%TO.P,U1,4,RXD*%
%TO.N,Net-(Q1-S)*%
X183755969Y-82519811D03*
%TO.P,U1,5,TXD*%
%TO.N,Net-(Q3-S)*%
X181215969Y-74899811D03*
%TO.P,U1,6,EN*%
%TO.N,/VCC*%
X181215969Y-77439811D03*
%TO.P,U1,7,~{RST}*%
%TO.N,unconnected-(U1-~{RST}-Pad7)*%
X181215969Y-79979811D03*
%TO.P,U1,8,VCC*%
%TO.N,/VCC*%
X181215969Y-82519811D03*
%TD*%
D17*
%TO.P,R1,1*%
%TO.N,Net-(J2-Pin_1)*%
X193500000Y-80080000D03*
%TO.P,R1,2*%
%TO.N,/Black*%
X193500000Y-75000000D03*
%TD*%
D10*
%TO.P,Q2,1,S*%
%TO.N,/Black*%
X189206534Y-78229699D03*
D11*
%TO.P,Q2,2,G*%
%TO.N,Net-(Q2-G)*%
X187936534Y-78229699D03*
%TO.P,Q2,3,D*%
%TO.N,/Green*%
X186666534Y-78229699D03*
%TD*%
D18*
%TO.N,Net-(Q2-G)*%
X196000000Y-75000000D03*
X196000000Y-81000000D03*
%TO.N,/VCC*%
X185788077Y-80768811D03*
X185191532Y-83669811D03*
%TD*%
D19*
%TO.N,Net-(Q2-G)*%
X196000000Y-75000000D02*
X196000000Y-81000000D01*
X196000000Y-75000000D02*
X196100000Y-75100000D01*
%TO.N,/VCC*%
X185039605Y-83669811D02*
X185400000Y-83309416D01*
X185400000Y-81156888D02*
X185788077Y-80768811D01*
X185400000Y-83309416D02*
X185400000Y-81156888D01*
X185191532Y-83669811D02*
X185039605Y-83669811D01*
%TD*%
M02*
