M48
; DRILL file {KiCad 9.0.4} date 2025-10-01T03:24:46-0700
; FORMAT={-:-/ absolute / metric / decimal}
; #@! TF.CreationDate,2025-10-01T03:24:46-07:00
; #@! TF.GenerationSoftware,Kicad,Pcbnew,9.0.4
; #@! TF.FileFunction,Plated,1,2,PTH
FMAT,2
METRIC
; #@! TA.AperFunction,Plated,PTH,ComponentDrill
T1C0.700
; #@! TA.AperFunction,Plated,PTH,ComponentDrill
T2C0.750
; #@! TA.AperFunction,Plated,PTH,ViaDrill
T3C0.800
; #@! TA.AperFunction,Plated,PTH,ComponentDrill
T4C0.800
; #@! TA.AperFunction,Plated,PTH,ComponentDrill
T5C0.950
; #@! TA.AperFunction,Plated,PTH,ComponentDrill
T6C1.000
%
G90
G05
T1
X193.5Y-75.0
X193.5Y-80.08
T2
X186.667Y-74.36
X186.667Y-78.23
X186.667Y-83.6
X187.937Y-74.36
X187.937Y-78.23
X187.937Y-83.6
X189.207Y-74.36
X189.207Y-78.23
X189.207Y-83.6
X192.304Y-83.14
X193.574Y-83.14
X194.844Y-83.14
T3
X185.192Y-83.67
X185.788Y-80.769
X196.0Y-75.0
X196.0Y-81.0
T4
X181.216Y-74.9
X181.216Y-77.44
X181.216Y-79.98
X181.216Y-82.52
X183.756Y-74.9
X183.756Y-77.44
X183.756Y-79.98
X183.756Y-82.52
T5
X208.727Y-74.778
X208.727Y-77.278
X208.727Y-79.778
X208.727Y-82.278
T6
X198.124Y-82.9
X200.664Y-82.9
X203.84Y-74.775
X203.84Y-77.315
X203.84Y-79.855
X203.84Y-82.395
M30
